<svg id="bec14c9e-9e55-4e00-b660-a0d48fff7f1d" data-name="Calque 1" xmlns="http://www.w3.org/2000/svg" width="49.75" height="52.87" viewBox="0 0 49.75 52.87"><defs><style>.f701b54a-6ba2-40aa-a15d-26d3320d6175{fill:#005cb9;}</style></defs><title>N-picto-reseau</title><path class="f701b54a-6ba2-40aa-a15d-26d3320d6175" d="M54.1,16.7a6.8,6.8,0,0,0-3-3.5.37.37,0,0,0-.3-.1l-2.5-.6a15.55,15.55,0,0,1-2.3-.8,26.38,26.38,0,0,1-4.4-2.3,28.33,28.33,0,0,1-3.7-3.2l-.8-1a6.42,6.42,0,0,0-1.3-1,7.24,7.24,0,0,0-3.1-1.1A10.87,10.87,0,0,0,30.9,3c-.2,0-.3,0-.4.1a.6.6,0,0,1-.4.1,6.89,6.89,0,0,0-.8.3,6.38,6.38,0,0,0-1.4.8L26.8,5c-1.4,1-2.9,2-4.2,3L20.5,9.5a18.61,18.61,0,0,1-2,1.4,12.47,12.47,0,0,1-4.1,1.4h.2l-1.6.1-.7.2a4.33,4.33,0,0,0-.5.1l-.5.1a7.62,7.62,0,0,0-3.8,1.9,7.62,7.62,0,0,0-2.4,3.5,8.16,8.16,0,0,0-.2,4.1v.1c.1.3.2.5.3.8a9.74,9.74,0,0,0,.5,1.1l.1.2.2.2,2.1,1.8,1.1.9a2.65,2.65,0,0,1,.6.5,2.09,2.09,0,0,0,.6.4,7.46,7.46,0,0,0,1.2.7l.6.4a2.19,2.19,0,0,1,.5.3,6.9,6.9,0,0,1,1.6,1.8,6.15,6.15,0,0,1,.7,2.3,6.15,6.15,0,0,1-.1,1.3l-.2,1.4c-.3,1.9-.6,3.7-1,5.5l-.5,2.8a5.79,5.79,0,0,0,.3,3.2,4.67,4.67,0,0,0,2.2,2.4l2.4,1.4c1.6,1,3.2,1.9,4.9,2.8l.3.2c.1.1.2.1.3.2a3.63,3.63,0,0,0,.7.3,8.33,8.33,0,0,0,1.5.4,9.42,9.42,0,0,0,2.9.1c.4,0,.6-.1.8-.1l.6-.1c.3-.1.7-.2,1.1-.3.7-.2,1.4-.4,2.2-.6a17.23,17.23,0,0,0,2.1-.7,1.69,1.69,0,0,1,.5-.2l.5-.2a3.55,3.55,0,0,1,.9-.4,24.64,24.64,0,0,1,3.8-1.4,25.75,25.75,0,0,1,4-.8,2.1,2.1,0,0,0,1.1-.8,1.1,1.1,0,0,0-.8-1.2h-.1a14.21,14.21,0,0,0-4.6-.1,17.61,17.61,0,0,0-4.5,1.2c-.4.2-.7.3-1.1.5l-.5.2c-.2.1-.3.2-.5.3l-1.9,1a17.38,17.38,0,0,1-1.9,1l-1,.4-.5.2a.77.77,0,0,1-.3.1l-.3.1c-3.1,1.6-6.3-1.8-9.4-3.4l-2.4-1.4A2.94,2.94,0,0,1,15,47.5a4.49,4.49,0,0,1-.4-2.3l.4-2.8c.3-1.9.6-3.7,1-5.5l.3-1.4a7.72,7.72,0,0,0,.2-1.5,10.1,10.1,0,0,0-.7-3A6.77,6.77,0,0,0,14,28.4a2.65,2.65,0,0,0-.6-.5l-.6-.5a7.63,7.63,0,0,0-1.1-.8,1.76,1.76,0,0,0-.5-.4,1.76,1.76,0,0,1-.4-.5l-1-1.1L8,22.5a7.75,7.75,0,0,1-.1-.9v.1a4.49,4.49,0,0,1,.4-2.3,4.89,4.89,0,0,1,1.4-1.8,5,5,0,0,1,2-.8H12a.37.37,0,0,1,.3-.1h.8l1.6-.2h.2a14,14,0,0,0,5.7-2.1c.2-.1.4-.3.6-.4l.1-.2.1-.1.3-.2,1-.8,2-1.6c1.3-1.1,2.7-2.2,4-3.3l1-.8c.3-.2.5-.4.7-.5s.3-.1.4-.2a.6.6,0,0,1,.4-.1,3.4,3.4,0,0,1,1-.1,6.07,6.07,0,0,1,1.8.5,3.51,3.51,0,0,1,.8.5l1,.9a28.08,28.08,0,0,0,4.4,3.3,22.27,22.27,0,0,0,4.9,2.4,25.82,25.82,0,0,0,2.6.8c.8.2,1.6.4,2.3.6a4.35,4.35,0,0,1,1.9,2.3,4.15,4.15,0,0,1,0,3.1,4.88,4.88,0,0,1-.3.7l-.5.8-1,1.7-1,1.7a16.45,16.45,0,0,0-1,1.9,13.79,13.79,0,0,0-.7,8.5c.2.7.4,1.3.6,1.9s.5,1.2.7,1.8a7,7,0,0,0,.6,1.9,3,3,0,0,0,1.1.7l.4.4c.1.1,0,.2-.1.3s-.1.2-.2.2l-.2.1-.1.1-.2.1a1,1,0,0,0,1.9-.7h-.5a.49.49,0,0,0-.3-.1c-.2,0-.3-.1-.3-.2s-.1-.3.1-.5a3.08,3.08,0,0,0,.5-1.2,5.92,5.92,0,0,0-.5-1.9c-.2-.6-.2-1.3-.4-1.9L49.9,35a10.27,10.27,0,0,1,.4-6.9c.3-.5.5-1.1.8-1.6l1-1.7,1-1.7.5-.8a3.7,3.7,0,0,0,.5-1.1A6.93,6.93,0,0,0,54.1,16.7Z" transform="translate(-4.73 -3)"/></svg>