<?xml version="1.0" encoding="utf-8"?>
<!-- Generator: Adobe Illustrator 24.1.2, SVG Export Plug-In . SVG Version: 6.00 Build 0)  -->
<svg version="1.2" baseProfile="tiny" id="Calque_1"
	 xmlns="http://www.w3.org/2000/svg" xmlns:xlink="http://www.w3.org/1999/xlink" x="0px" y="0px" width="60px" height="60px"
	 viewBox="0 0 60 60" overflow="visible" xml:space="preserve">
<path fill="#005CB9" d="M19.2,21.6c-0.1,0-0.2-0.1-0.3-0.1h-0.7l-0.9-0.1l-4-0.2l-2.2-0.1L10,21.2H9.5c-0.2,0-0.4,0.1-0.5,0.1
	c-1.1,0.4-1.9,1.4-1.9,2.5L7,25.1v2.5c-0.2,6.9-0.2,14.9-0.2,22.8c0,1.6,1.2,3,2.8,3.2h8.9c0.2,0,0.4,0,0.6-0.1s0.5-0.1,0.7-0.2
	c0.9-0.4,1.6-1.2,1.8-2.2c0.1-0.2,0.1-0.5,0.1-0.7v-0.5l1.2,0.8c0.4,0.3,0.9,0.6,1.5,0.9c1.1,0.7,2.5,1.1,3.7,1.3
	c0.4,0.1,0.7,0.1,1.1,0.1h1l4.2,0.1l4.5,0.1l2.4,0.1h1.3c0.5,0,0.9-0.1,1.4-0.1c1-0.1,1.9-0.3,2.8-0.7c1-0.4,1.8-1,2.6-1.7
	c0.9-0.8,1.4-1.8,1.7-3c0.1-0.5,0.2-1.1,0.2-1.8c0-0.2-0.1-0.4-0.1-0.7c1-0.8,1.7-2,2.1-3.2c0.2-0.8,0.4-1.8,0.2-2.7
	c-0.1-0.4-0.1-0.9-0.2-1.3c0-0.1-0.1-0.1-0.1-0.2l0.1-0.1c0.2-0.4,0.5-0.7,0.7-1.1c0.4-0.8,0.7-1.7,0.8-2.6c0.1-1-0.1-1.9-0.5-2.8
	c-0.2-0.4-0.4-0.8-0.7-1.2L53.5,30c0.1-0.1,0.1-0.3,0.2-0.4c0.2-0.5,0.2-1.1,0.3-1.7c0.1-1.2-0.4-2.5-1.1-3.4
	c-0.2-0.2-0.4-0.5-0.6-0.7c-0.6-0.7-1.4-1.2-2.3-1.4c-0.2-0.1-0.5-0.2-0.8-0.2l-0.6-0.1c-0.4-0.1-0.8-0.2-1.3-0.2
	c-1.8-0.3-3.6-0.4-5.3-0.5h-3.2v-0.1c0-0.2,0-0.3-0.1-0.5v-1.1c0.1-0.8,0.2-1.5,0.4-2.2c0.2-0.8,0.4-1.5,0.6-2.3l0.4-1.3
	c0.1-0.4,0.2-0.9,0.3-1.3c0.1-1,0.2-1.9,0.1-2.8c-0.1-1-0.5-2-1-2.8c-0.6-0.9-1.3-1.6-2.2-2.1c-0.8-0.5-1.8-0.8-2.7-1h-0.2
	c-0.7,0-1.4,0.2-1.9,0.6s-0.9,1-1.1,1.6v0.2l-0.5,3.6c-0.1,0.5-0.2,1-0.4,1.5c-0.2,0.5-0.4,1-0.6,1.5l-2.7,6L26,21.6
	c-0.5,1.4-1.6,2.6-3,3.2c-0.3,0.1-0.6,0.2-1,0.4l-0.7,0.2c0-0.4-0.1-0.7-0.1-1.1s-0.4-0.5-0.9-0.5s-0.7,0.2-0.8,0.5
	c-0.3,3.9-0.5,9.8-0.6,16.7l-0.1,5.4l-0.1,2.8v1h-8.6c0-7.9-0.1-15.7-0.2-22.5l-0.1-2.5V24v-0.1l0.1-0.1H10l1.1,0.1l2.2-0.1l4-0.2
	l1.5-0.1c0.2,0,0.4,0.2,0.5,0.4c0.2,0.2,0.6,0.2,0.9,0.2s0.6-0.2,0.7-0.5v-0.1C20.7,22.4,20,21.8,19.2,21.6L19.2,21.6z M22.2,27
	c0.4-0.1,0.9-0.2,1.3-0.4c0.9-0.3,1.8-0.8,2.5-1.5c0.8-0.7,1.5-1.6,1.9-2.5l1.3-2.7l3-5.9c0.3-0.5,0.5-1.1,0.8-1.8
	c0.2-0.7,0.4-1.3,0.5-1.9l0.1-0.5l0.1-0.5l0.1-0.9L34,6.8c0.1-0.1,0.1-0.1,0.1-0.1c1.1,0.2,2,0.8,2.6,1.8c0.5,1.1,0.7,2.4,0.4,3.6
	c-0.1,0.4-0.1,0.7-0.2,1l-0.3,1.1c-0.3,0.8-0.6,1.7-0.7,2.5c-0.2,0.9-0.4,1.8-0.5,2.7c-0.1,0.5-0.1,1-0.1,1.5c0,0.2,0,0.5,0.1,0.8
	c0,0.1,0.1,0.2,0.1,0.4l0.1,0.2c0,0.1,0,0.1,0.1,0.2c0.3,1,1,1.8,2.1,2c0.2,0.1,0.5,0.1,0.7,0.1h1c0.8,0,1.7,0,2.5,0.1
	c1.6,0.1,3.3,0.2,4.9,0.5c0.4,0.1,0.8,0.1,1.2,0.2l0.6,0.1c0.2,0,0.3,0.1,0.5,0.1c0.2,0.1,0.5,0.2,0.7,0.3c0.2,0.2,0.4,0.4,0.5,0.6
	c0.3,0.4,0.5,0.8,0.4,1.3c0,0.3-0.1,0.5-0.1,0.8c-0.1,0.1-0.1,0.3-0.1,0.4l-0.2,0.1l-0.1,0.1c-0.3,0.6-0.2,1.4,0.2,1.9l0.1,0.2
	l0.2,0.2c0.1,0.1,0.1,0.2,0.2,0.3c0.1,0.2,0.2,0.4,0.4,0.6c0.2,0.4,0.2,0.8,0.2,1.3c-0.1,1-0.6,1.9-1.3,2.5
	c-0.4,0.5-0.5,1.2-0.3,1.8l0.1,0.2l0.1,0.2c0.1,0.1,0.1,0.2,0.1,0.4l0.2,0.7c0.1,0.5,0,0.9-0.1,1.4c-0.3,0.9-0.9,1.7-1.7,2.2
	c-0.5,0.4-0.7,1-0.5,1.6l0.1,0.1l0.1,0.1c0,0.1,0.1,0.1,0.1,0.2c0,0.2,0.1,0.3,0.1,0.5c0,0.3,0,0.6-0.1,0.9
	c-0.1,0.6-0.4,1.1-0.8,1.6c-0.5,0.5-1.1,0.9-1.7,1.1c-0.6,0.3-1.3,0.5-2,0.6c-0.4,0.1-0.7,0.1-1.1,0.1h-1.1L39.4,50l-4.5,0.1
	l-4.3,0.2h-1.8c-0.5-0.1-1.1-0.1-1.6-0.3c-0.5-0.1-1-0.3-1.5-0.5c-0.4-0.2-0.9-0.5-1.4-0.7l-2.2-1.2v-1.4L22,40.8
	c-0.1-5.4-0.2-10.3-0.5-14C21.5,27.1,21.8,27.1,22.2,27L22.2,27z"/>
</svg>
