<?xml version="1.0" encoding="utf-8"?>
<!-- Generator: Adobe Illustrator 24.1.2, SVG Export Plug-In . SVG Version: 6.00 Build 0)  -->
<svg version="1.2" baseProfile="tiny" id="Calque_1"
	 xmlns="http://www.w3.org/2000/svg" xmlns:xlink="http://www.w3.org/1999/xlink" x="0px" y="0px" width="60px" height="60px"
	 viewBox="0 0 60 60" overflow="visible" xml:space="preserve">
<g>
	<path fill="#005CB9" d="M41,48.6l-0.1-2.4c0-0.3-0.4-0.5-0.8-0.5c-0.4,0-0.7,0.2-0.7,0.5l-0.2,2.5l-0.1,1.4v1.1
		c0,0.1,0,0.2-0.1,0.2c-0.2,0.6-0.7,1-1.3,1.1l-3.4-0.1c-4.7-0.1-10.1-0.2-15.9-0.3l0.3-1.9c0.3-2,0.5-4,0.5-5.9
		c0-0.8-0.3-1.7-1-2.3c-0.3-0.3-0.7-0.6-1.1-0.7c-0.2-0.1-0.4-0.2-0.6-0.2c-0.1,0-0.2-0.1-0.3-0.1H16l-3-0.2H8.3
		c0-7.5-0.1-14.8-0.2-21.4l-0.1-5v-2.7c0-0.1,0-0.2,0.1-0.3c0.1-0.2,0.1-0.4,0.2-0.6c0.2-0.2,0.3-0.3,0.5-0.3
		c0.2-0.1,0.4-0.1,0.6-0.1l1.9-0.1c1.2-0.1,2.4-0.1,3.3-0.2c0.3,0,0.5-0.4,0.5-0.8c0-0.5-0.2-0.7-0.5-0.7c-1-0.1-2.2-0.1-3.3-0.2
		L9.4,8.3c-1-0.1-2,0.3-2.7,1C6.3,9.7,6,10.1,5.9,10.6c-0.1,0.2-0.2,0.5-0.2,0.7V12l-0.1,2.3l-0.1,5c-0.2,7-0.2,14.9-0.2,22.9
		c0,0.4,0.2,0.8,0.5,1.1C9.4,47.2,13.3,51,17,54.6c0.3,0.3,0.6,0.4,1,0.4c6-0.1,11.6-0.1,16.5-0.3l1.8-0.1h0.8c0.3,0,0.5,0,1-0.1
		c0.8-0.1,1.5-0.5,2.1-1c0.5-0.5,0.9-1.2,1-1.9c0-0.2,0.1-0.3,0.1-0.5v-0.4L41.1,50L41,48.6z M10.5,43.9H13l3.1-0.1h0.2
		c0.1,0,0.1,0.1,0.1,0.1c0.1,0.1,0.2,0.2,0.2,0.3c0.1,1.5,0.2,3,0.5,4.5c0.1,0.7,0.3,1.5,0.3,2.2C15.1,48.6,12.8,46.2,10.5,43.9z"/>
	<path fill="#005CB9" d="M57.7,21.1c-1.6-4.2-5-7.4-9.3-8.8c-6.9-2.3-14.4,0.6-18,6.9c-6.3-0.2-14.3,0-17.7,0.7
		c-0.1,0-0.2,0.4-0.2,0.8s0.1,0.7,0.2,0.7c3.1,0.7,10.4,0.9,16.4,0.7c-0.5,1.4-0.7,2.8-0.8,4.2c0,0.4,0,0.8,0,1.1
		c-5.9-0.1-12.6,0.1-15.6,0.8c-0.1,0-0.2,0.4-0.2,0.8s0.1,0.7,0.2,0.7c3.1,0.7,10.1,0.9,16.1,0.7c0.5,2,1.3,3.8,2.5,5.5
		c-6.4-0.3-15.1-0.1-18.6,0.7c-0.1,0-0.2,0.4-0.2,0.8c0,0.4,0.1,0.7,0.2,0.7c4,0.9,14.7,1,21.1,0.5c2.8,2.3,6.2,3.6,9.9,3.4
		c2.9,0,5.6-1,8-2.6c0.2-0.2,0.3-0.6,0.1-0.8c0.2,0.2,0.5,0.3,0.8,0.2l0.7-0.5c0.2-0.2,0.5-0.4,0.7-0.6c0.5-0.5,1-0.9,1.4-1.5
		c1-1.2,1.8-2.5,2.4-4c0.7-1.6,1-3.5,1.1-5.2C58.9,24.9,58.5,22.9,57.7,21.1z M55.9,31.5c-0.4,1.3-1.1,2.5-1.9,3.6l0,0
		c-0.3,0.5-0.7,1-1.2,1.4l-0.6,0.6l-0.6,0.5c-0.2,0.2-0.2,0.6,0,0.8c-0.2-0.2-0.5-0.3-0.7-0.2c-2.2,1.3-4.8,1.9-7.3,1.9
		c-3.3-0.1-6.5-1.4-8.8-3.7c-2.8-2.7-4.3-6.3-4.1-10.1C31,19.2,37.2,13.6,44.3,14c3.1,0.2,5.9,1.4,8.2,3.5c1.4,1.2,2.4,2.8,3.1,4.4
		C56.9,25,57,28.4,55.9,31.5z"/>
	<path fill="#005CB9" d="M49.9,20.3c-0.3-0.3-0.6-0.5-0.7-0.5c-2,1.4-4,2.9-5.7,4.6c-1.8-1.7-3.8-3.3-5.8-4.6
		c-0.1-0.1-0.4,0.1-0.7,0.5c-0.3,0.3-0.5,0.6-0.5,0.7c1.4,2,3,4,4.6,5.8c-1.6,1.8-3.2,3.7-4.6,5.8c-0.1,0.1,0.2,0.4,0.5,0.7
		s0.6,0.5,0.7,0.5c2-1.4,4-3,5.8-4.6c1.8,1.7,3.7,3.3,5.8,4.6c0.1,0.1,0.4-0.2,0.7-0.5s0.5-0.6,0.5-0.7c-1.4-2-3-4-4.6-5.8
		c1.7-1.8,3.3-3.8,4.6-5.8C50.4,20.9,50.3,20.5,49.9,20.3z"/>
	<polygon fill="#005CB9" points="36.6,32.6 36.6,32.6 36.6,32.5 	"/>
</g>
</svg>
