<svg xmlns="http://www.w3.org/2000/svg" width="60" height="60" fill="none" viewBox="0 0 60 60">
    <path fill="#215EB2" d="M54.154 27.84a5.291 5.291 0 0 0-3.677-.293 4.287 4.287 0 0 0-1.601.878c-.119.117-.238.176-.356.293l-.237.234-.475.468c-3.558 3.63-6.701 6.849-9.132 9.424a5.035 5.035 0 0 0-3.203-3.336c-.474-.176-.89-.235-1.364-.293h-3.083c-5.219 0-10.438.058-15.063.175h-.83c-.297 0-.653 0-.95.059-.652.059-1.245.234-1.838.41a8.846 8.846 0 0 0-2.965 1.697c-.415.351-.711.703-1.008.995l-.89.878c-.533.586-1.067 1.112-1.482 1.58-.119.118.06.527.356.82.296.293.593.468.711.351.534-.41 1.127-.82 1.78-1.287l1.008-.761c.355-.234.711-.586 1.008-.761a8.741 8.741 0 0 1 2.253-1.054 5 5 0 0 1 1.305-.175h1.66c4.567.117 9.785.175 15.063.175h2.847c.178 0 .356.059.534.117.652.234 1.186.82 1.304 1.522a1.907 1.907 0 0 1-.712 1.815 1.962 1.962 0 0 1-.948.41H32.567c-4.625.292-8.539.468-11.148.76-.178 0-.297.41-.297.82s.119.702.297.702c2.609.293 6.523.468 11.09.644h1.897a4.542 4.542 0 0 0 2.431-.878c.95-.702 1.66-1.639 1.957-2.81a544.474 544.474 0 0 0 11.03-10.009L50.3 31c.06-.058.178-.175.237-.175.06-.059.119-.059.119-.117.415-.293.89-.41 1.423-.351.296.058.534.117.77.234.475.234.772.644.95 1.112.178.468.118.995-.119 1.463-.06.117-.119.234-.237.293l-.119.117-.237.234-1.008.995-2.016 1.99-4.151 3.922c-2.728 2.693-5.456 5.385-8.066 8.019-1.66 1.697-3.854 2.751-6.226 3.044-.416.058-.712.058-1.186.058h-1.305c-3.38.059-6.523.176-9.251.234h-.534c-.178 0-.415.059-.593.117-.415.059-.83.176-1.186.352-.712.292-1.305.76-1.838 1.287-.238.234-.416.527-.653.82l-.415.702-.77 1.346c-.12.235.059.586.414.878.356.293.712.235.89.059l1.008-1.17.534-.645c.178-.175.296-.35.474-.526.534-.469 1.245-.761 2.017-.878h.83c2.787.117 5.87.175 9.25.234h1.305c.416 0 .95 0 1.424-.059 1.008-.058 1.957-.292 2.906-.585 1.957-.644 3.795-1.697 5.278-3.16 2.668-2.576 5.396-5.269 8.124-7.961l4.092-3.98 2.016-1.99 1.008-.996.237-.234.356-.351c.237-.234.415-.527.534-.878 1.245-2.4.296-5.326-2.194-6.556-.178 0-.178 0-.237-.058zM16.081 7.47a17.421 17.421 0 0 0-3.024 4.449c-.178.351-.356.76-.534 1.17-.118.41-.296.82-.415 1.23-.237.82-.415 1.639-.534 2.458-.059.41-.118.761-.177 1.17l-.06 1.113c-.059.76 0 1.58.06 2.341.178 1.405.474 2.751.948 4.098.416 1.17.95 2.282 1.66 3.277.535.878 1.187 1.64 1.899 2.4.177.176.593.059.89-.234.296-.293.414-.585.296-.76-.534-.762-.95-1.523-1.424-2.342-.474-.995-.89-1.99-1.126-3.044-.356-1.17-.534-2.4-.593-3.629-.06-.644 0-1.288.059-1.99l.118-.995c.06-.351.12-.702.178-.995.119-.703.356-1.405.593-2.049.12-.351.297-.644.416-.995.118-.351.296-.644.474-.995.712-1.346 1.542-2.575 2.61-3.629 1.067-1.112 2.312-2.107 3.676-2.81a14.13 14.13 0 0 1 2.135-.995c.712-.292 1.483-.468 2.253-.643l.593-.118c.178-.058.416-.058.593-.058.416-.059.771-.117 1.186-.117l1.186-.059c.416 0 .771.059 1.187.059 1.541.117 3.083.468 4.507 1.053 1.423.586 2.727 1.288 3.913 2.225 2.195 1.697 3.974 3.98 5.041 6.497.237.585.415 1.17.593 1.756.06.293.178.585.237.878l.178.878a16.83 16.83 0 0 1 0 5.97c-.059.234.297.527.771.585.475.059.771 0 .83-.234.712-2.165.95-4.39.771-6.614l-.178-1.053-.177-1.054c-.178-.702-.356-1.405-.593-2.107a20.155 20.155 0 0 0-2.135-4.215 22.582 22.582 0 0 0-3.44-3.687c-1.423-1.112-2.965-2.049-4.625-2.751a19.1 19.1 0 0 0-5.456-1.346c-.475 0-.949-.117-1.424-.059h-1.423c-.474 0-.949.117-1.423.176-.237.058-.474.058-.712.117l-.711.175c-.95.176-1.839.469-2.728.82-.89.351-1.72.76-2.55 1.229A15.623 15.623 0 0 0 16.08 7.47z"/>
    <path fill="#215EB2" d="M26.46 18.65H31.38c.534 0 .89.234 1.127.703.237.41.178.877-.118 1.287-.238.351-.593.527-1.068.527H26.4c.178.41.297.82.534 1.17.77 1.347 1.957 2.166 3.44 2.46 1.245.233 2.43.058 3.498-.586.237-.117.474-.293.712-.41.593-.293 1.245-.058 1.6.527.297.527.179 1.229-.296 1.58-1.779 1.288-3.736 1.815-5.87 1.405-2.906-.527-4.863-2.283-5.872-5.034-.118-.234-.177-.527-.237-.82-.059-.233-.118-.292-.355-.292h-1.068c-.712 0-1.245-.527-1.245-1.23 0-.702.533-1.228 1.245-1.228h1.186c.178 0 .237-.059.237-.176.297-1.639 1.127-2.985 2.372-4.097.89-.82 1.898-1.347 3.084-1.64 1.838-.467 3.677-.35 5.397.528.415.234.83.468 1.186.76.533.41.593 1.113.237 1.698-.356.527-1.008.644-1.66.351-.475-.234-.89-.527-1.364-.702a4.97 4.97 0 0 0-3.321-.117c-1.66.527-2.728 1.639-3.321 3.278-.06-.117-.06-.059-.06.058z"/>
</svg>
